{"title":"Enemies Closer - Jean-Claude Van Damme (2013) [XviD - Italian En","uid":11160508,"size":1457620992,"categoryP":"video","categoryS":"movies","magnet":"?xt=urn:btih:c6261c00a5072f366c07f03227f7fc723c3d6521&amp;dn=Enemies+Closer+-+Jean-Claude+Van+Damme+%282013%29+%5BXviD+-+Italian+En&amp;tr=udp%3A%2F%2Ftracker.openbittorrent.com%3A80&amp;tr=udp%3A%2F%2Fopen.demonii.com%3A1337&amp;tr=udp%3A%2F%2Ftracker.coppersurfer.tk%3A6969&amp;tr=udp%3A%2F%2Fexodus.desync.com%3A6969","seeders":8,"leechers":0,"uploader":"robbyrs4","files":1,"time":1412527250,"description":"Enemies Closer - Jean-Claude Van Damme (2013) [XviD - Italian English Ac3 5.1] MIRCrew\n\n\n\n[center][color=red][b][img]http://s19.postimg.org/mqmhlwtlf/Mircrew_original_red_skull.png[/img]\n\n[u]NO FOUND ONLY ORIGINAL RELEASE[/u]\n\n\nEnemies Closer (2013)\n\n\n[img]http://s19.postimg.org/5vinn2deb/image.jpg[/img]\n\n\n[URL=http://www.imdb.com/title/tt2395199/][IMG]http://www.userlogos.org/files/logos/Sucka/imdb_new.png[/IMG][/URL]  \n\n[img]http://imageshack.us/a/img534/6946/zcu.gif[/img]\n\nTheatrical release poster\nDirected by \tPeter Hyams\nProduced by \tMoshe Diamant\nBobby Ranghelov\nJoel Silver\nCourtney Solomon\nScreenplay by \tEric Bromberg\nJames Bromberg\nStarring \tJean-Claude Van Damme\nTom Everett Scott\nOrlando Jones\nKristopher Van Varenberg\nLinzey Cocker\nZahari Baharov\nMusic by \tTony Morales\nCinematography \tPeter Hyams\nEdited by \tJohn Hyams\nProduction\ncompany \t\nAfter Dark Films\nSignature Pictures\nDistributed by \tLionsgate\nVVS Films\nIM Global\nRelease dates \t\n\n    4 December 2013 (France)\n    24 January 2014 (United States)\n\nRunning time \t85 minutes\nCountry \tUnited States\nCanada\nLanguage \tEnglish\n\n\n[img]http://imageshack.us/a/img4/8946/u96.gif[/img]\n\n\nJean-Claude Van Damme, Tom Everett Scott, Orlando Jones, Linzey Cocker, Kristopher Van Varenberg.\n\n\n\n\n[img]http://imageshack.us/a/img844/6546/cupz.gif[/img]. \n\nNel profondo di una foresta tra il confine USA-Canada, due nemici giurati devono lavorare insieme per sfuggire a uno spietato cartello della droga, che vuole recuperare un carico perduto in quella zona. ...........\n\n[img]http://imageshack.us/a/img202/6180/4e6.gif[/img]\n\nForest ranger and Ex-Navy SEAL Henry is forced by the drug cartel to help retrieve a major shipment of drugs which went missing on the US-Canadian border. While in the woods, he runs into a man who has a vendetta against him......\n &lt;a href=&quot;\nhttp://s19.postimg.org/6c3v9i15f/vlcsnap_2014_10_03_18h26m02s197.png&quot; rel=&quot;nofollow&quot; target=&quot;_NEW&quot;&gt;\nhttp://s19.postimg.org/6c3v9i15f/vlcsnap_2014_10_03_18h26m02s197.png&lt;/a&gt;\n &lt;a href=&quot;\nhttp://s19.postimg.org/rj7lxidsj/vlcsnap_2014_10_03_18h26m14s44.png&quot; rel=&quot;nofollow&quot; target=&quot;_NEW&quot;&gt;\nhttp://s19.postimg.org/rj7lxidsj/vlcsnap_2014_10_03_18h26m14s44.png&lt;/a&gt;\n &lt;a href=&quot;\nhttp://s19.postimg.org/6atxg2zbn/vlcsnap_2014_10_03_18h26m23s144.png&quot; rel=&quot;nofollow&quot; target=&quot;_NEW&quot;&gt;\nhttp://s19.postimg.org/6atxg2zbn/vlcsnap_2014_10_03_18h26m23s144.png&lt;/a&gt;\n\n[img]http://imageshack.us/a/img571/2166/an4p.gif[/img]\n\n\n[spoiler]\nGeneral\nComplete name                            : Enemies Closer (2013).ita.eng.MIRCrewEnemies Closer (2013).ita.eng.MIRCrew.avi\nFormat                                   : AVI\nFormat/Info                              : Audio Video Interleave\nFile size                                : 1.36 GiB\nDuration                                 : 1h 21mn\nOverall bit rate                         : 2 379 Kbps\nWriting application                      : VirtualDubMod 1.5.4.1 (build 2178/release)\nWriting library                          : VirtualDubMod build 2178/release\n\nVideo\nID                                       : 0\nFormat                                   : MPEG-4 Visual\nFormat profile                           : Simple@L3\nFormat settings, BVOP                    : No\nFormat settings, QPel                    : No\nFormat settings, GMC                     : No warppoints\nFormat settings, Matrix                  : Default (H.263)\nCodec ID                                 : XVID\nCodec ID/Hint                            : XviD\nDuration                                 : 1h 21mn\nBit rate                                 : 1 469 Kbps\nWidth                                    : 720 pixels\nHeight                                   : 404 pixels\nDisplay aspect ratio                     : 16:9\nFrame rate                               : 25.000 fps\nColor space                              : YUV\nChroma subsampling                       : 4:2:0\nBit depth                                : 8 bits\nScan type                                : Progressive\nCompression mode                         : Lossy\nBits/(Pixel*Frame)                       : 0.202\nStream size                              : 858 MiB (62%)\nWriting library                          : XviD 65\n\nAudio #1\nID                                       : 1\nFormat                                   : AC-3\nFormat/Info                              : Audio Coding 3\nMode extension                           : CM (complete main)\nCodec ID                                 : 2000\nDuration                                 : 1h 21mn\nBit rate mode                            : Constant\nBit rate                                 : 448 Kbps\nChannel(s)                               : 6 channels\nChannel positions                        : Front: L C R, Side: L R, LFE\nSampling rate                            : 48.0 KHz\nBit depth                                : 16 bits\nCompression mode                         : Lossy\nStream size                              : 262 MiB (19%)\nAlignment                                : Split accross interleaves\nInterleave, duration                     : 40 ms (1.00 video frame)\nInterleave, preload duration             : 500 ms\n\nAudio #2\nID                                       : 2\nFormat                                   : AC-3\nFormat/Info                              : Audio Coding 3\nMode extension                           : CM (complete main)\nCodec ID                                 : 2000\nDuration                                 : 1h 21mn\nBit rate mode                            : Constant\nBit rate                                 : 448 Kbps\nChannel(s)                               : 6 channels\nChannel positions                        : Front: L C R, Side: L R, LFE\nSampling rate                            : 48.0 KHz\nBit depth                                : 16 bits\nCompression mode                         : Lossy\nStream size                              : 262 MiB (19%)\nAlignment                                : Split accross interleaves\nInterleave, duration                     : 40 ms (1.00 video frame)\nInterleave, preload duration             : 500 ms\n\n\n\n[/spoiler]\n\n[/color][/b][/center]","torrent":{"xt":"urn:btih:c6261c00a5072f366c07f03227f7fc723c3d6521","amp;dn":"Enemies+Closer+-+Jean-Claude+Van+Damme+%282013%29+%5BXviD+-+Italian+En","amp;tr":["udp%3A%2F%2Ftracker.openbittorrent.com%3A80","udp%3A%2F%2Fopen.demonii.com%3A1337","udp%3A%2F%2Ftracker.coppersurfer.tk%3A6969","udp%3A%2F%2Fexodus.desync.com%3A6969"],"infoHash":"c6261c00a5072f366c07f03227f7fc723c3d6521","infoHashBuffer":{"type":"Buffer","data":[198,38,28,0,165,7,47,54,108,7,240,50,39,247,252,114,60,61,101,33]},"announce":[],"urlList":[]}}